<svg width="330" height="72" viewBox="0 0 330 72" fill="none" xmlns="http://www.w3.org/2000/svg">
<ellipse cx="165" cy="36" rx="165" ry="36" fill="#3F324D"/>
<path d="M89.5803 30V11.8182H96.7536C98.1326 11.8182 99.3074 12.0816 100.278 12.6083C101.249 13.1291 101.989 13.8542 102.498 14.7834C103.012 15.7067 103.27 16.772 103.27 17.9794C103.27 19.1868 103.009 20.2521 102.489 21.1754C101.968 22.0987 101.213 22.8178 100.225 23.3327C99.2423 23.8477 98.0527 24.1051 96.6559 24.1051H92.0838V21.0245H96.0344C96.7743 21.0245 97.3839 20.8973 97.8633 20.6428C98.3486 20.3823 98.7096 20.0243 98.9464 19.5685C99.189 19.1069 99.3104 18.5772 99.3104 17.9794C99.3104 17.3757 99.189 16.849 98.9464 16.3991C98.7096 15.9434 98.3486 15.5913 97.8633 15.3427C97.378 15.0882 96.7624 14.9609 96.0167 14.9609H93.4244V30H89.5803ZM111.691 30.2663C110.288 30.2663 109.08 29.9822 108.068 29.4141C107.062 28.84 106.287 28.0291 105.742 26.9815C105.198 25.928 104.926 24.6822 104.926 23.244C104.926 21.8413 105.198 20.6102 105.742 19.5508C106.287 18.4914 107.053 17.6657 108.042 17.0739C109.036 16.482 110.202 16.1861 111.54 16.1861C112.439 16.1861 113.277 16.3311 114.052 16.6211C114.833 16.9052 115.514 17.3343 116.094 17.9084C116.68 18.4825 117.136 19.2045 117.461 20.0746C117.787 20.9387 117.949 21.9508 117.949 23.1108V24.1495H106.435V21.8058H114.389C114.389 21.2612 114.271 20.7789 114.034 20.3587C113.798 19.9384 113.469 19.61 113.049 19.3732C112.635 19.1306 112.152 19.0092 111.602 19.0092C111.028 19.0092 110.519 19.1424 110.075 19.4087C109.637 19.6692 109.294 20.0213 109.045 20.4652C108.796 20.9032 108.669 21.3915 108.663 21.93V24.1584C108.663 24.8331 108.787 25.4161 109.036 25.9073C109.291 26.3986 109.649 26.7773 110.11 27.0437C110.572 27.31 111.119 27.4432 111.753 27.4432C112.173 27.4432 112.558 27.384 112.907 27.2656C113.256 27.1473 113.555 26.9697 113.803 26.733C114.052 26.4962 114.241 26.2062 114.372 25.8629L117.869 26.0938C117.692 26.9342 117.328 27.6681 116.778 28.2955C116.233 28.9169 115.529 29.4022 114.665 29.7514C113.806 30.0947 112.815 30.2663 111.691 30.2663ZM124.199 22.1165V30H120.417V16.3636H124.022V18.7695H124.182C124.483 17.9764 124.99 17.3491 125.7 16.8874C126.41 16.4199 127.271 16.1861 128.283 16.1861C129.23 16.1861 130.056 16.3932 130.76 16.8075C131.464 17.2218 132.012 17.8137 132.403 18.5831C132.793 19.3466 132.988 20.258 132.988 21.3175V30H129.206V21.9922C129.212 21.1577 128.999 20.5066 128.567 20.0391C128.135 19.5656 127.54 19.3288 126.783 19.3288C126.274 19.3288 125.824 19.4383 125.433 19.6573C125.049 19.8763 124.747 20.1959 124.528 20.6161C124.315 21.0304 124.205 21.5305 124.199 22.1165ZM147.315 20.2521L143.853 20.4652C143.794 20.1693 143.666 19.9029 143.471 19.6662C143.276 19.4235 143.018 19.2312 142.699 19.0891C142.385 18.9412 142.009 18.8672 141.571 18.8672C140.985 18.8672 140.491 18.9915 140.089 19.2401C139.686 19.4827 139.485 19.8082 139.485 20.2166C139.485 20.5421 139.615 20.8174 139.875 21.0423C140.136 21.2672 140.583 21.4477 141.216 21.5838L143.684 22.081C145.01 22.3532 145.998 22.7912 146.649 23.3949C147.3 23.9986 147.626 24.7917 147.626 25.7741C147.626 26.6679 147.362 27.4521 146.836 28.1268C146.315 28.8015 145.599 29.3282 144.687 29.707C143.782 30.0799 142.737 30.2663 141.553 30.2663C139.748 30.2663 138.31 29.8905 137.239 29.1388C136.173 28.3813 135.549 27.3514 135.366 26.0494L139.085 25.854C139.198 26.4045 139.47 26.8247 139.902 27.1147C140.334 27.3988 140.888 27.5408 141.562 27.5408C142.225 27.5408 142.758 27.4136 143.16 27.1591C143.569 26.8987 143.776 26.5643 143.782 26.1559C143.776 25.8126 143.631 25.5315 143.347 25.3125C143.063 25.0876 142.625 24.916 142.033 24.7976L139.671 24.3271C138.34 24.0607 137.348 23.5991 136.697 22.9421C136.052 22.2852 135.729 21.4477 135.729 20.4297C135.729 19.5537 135.966 18.7991 136.44 18.1658C136.919 17.5326 137.591 17.0443 138.455 16.701C139.325 16.3577 140.343 16.1861 141.509 16.1861C143.231 16.1861 144.587 16.5501 145.575 17.2781C146.569 18.006 147.149 18.9974 147.315 20.2521ZM153.896 30.2575C153.026 30.2575 152.25 30.1065 151.57 29.8047C150.889 29.4969 150.351 29.0442 149.954 28.4464C149.563 27.8427 149.368 27.091 149.368 26.1914C149.368 25.4338 149.507 24.7976 149.785 24.2827C150.064 23.7678 150.442 23.3535 150.922 23.0398C151.401 22.7261 151.946 22.4893 152.555 22.3295C153.171 22.1697 153.816 22.0573 154.491 21.9922C155.284 21.9093 155.923 21.8324 156.408 21.7614C156.894 21.6844 157.246 21.572 157.465 21.424C157.684 21.276 157.793 21.0571 157.793 20.767V20.7138C157.793 20.1515 157.616 19.7165 157.26 19.4087C156.911 19.101 156.414 18.9471 155.769 18.9471C155.088 18.9471 154.547 19.098 154.144 19.3999C153.742 19.6958 153.476 20.0687 153.345 20.5185L149.847 20.2344C150.025 19.4058 150.374 18.6896 150.895 18.0859C151.416 17.4763 152.088 17.0088 152.91 16.6832C153.739 16.3518 154.698 16.1861 155.787 16.1861C156.544 16.1861 157.269 16.2749 157.962 16.4524C158.66 16.63 159.279 16.9052 159.817 17.2781C160.362 17.6509 160.791 18.1303 161.105 18.7163C161.418 19.2963 161.575 19.9917 161.575 20.8026V30H157.988V28.109H157.882C157.663 28.5352 157.37 28.911 157.003 29.2365C156.636 29.5561 156.195 29.8076 155.68 29.9911C155.165 30.1687 154.57 30.2575 153.896 30.2575ZM154.979 27.6474C155.535 27.6474 156.026 27.5379 156.453 27.3189C156.879 27.094 157.213 26.7921 157.456 26.4134C157.698 26.0346 157.82 25.6055 157.82 25.1261V23.679C157.701 23.7559 157.539 23.8269 157.331 23.892C157.13 23.9512 156.902 24.0075 156.648 24.0607C156.393 24.1081 156.139 24.1525 155.884 24.1939C155.63 24.2294 155.399 24.262 155.192 24.2915C154.748 24.3567 154.36 24.4602 154.029 24.6023C153.698 24.7443 153.44 24.9367 153.257 25.1793C153.073 25.4161 152.981 25.712 152.981 26.0671C152.981 26.582 153.168 26.9756 153.541 27.2479C153.919 27.5142 154.399 27.6474 154.979 27.6474ZM164.509 30V16.3636H168.114V18.7695H168.273C168.558 17.9705 169.031 17.3402 169.694 16.8786C170.357 16.4169 171.15 16.1861 172.073 16.1861C173.008 16.1861 173.804 16.4199 174.461 16.8874C175.118 17.3491 175.556 17.9764 175.775 18.7695H175.917C176.195 17.9883 176.699 17.3639 177.426 16.8963C178.16 16.4228 179.027 16.1861 180.028 16.1861C181.3 16.1861 182.333 16.5915 183.126 17.4023C183.925 18.2073 184.325 19.3495 184.325 20.8292V30H180.551V21.5749C180.551 20.8174 180.35 20.2492 179.948 19.8704C179.545 19.4916 179.042 19.3022 178.439 19.3022C177.752 19.3022 177.216 19.5212 176.832 19.9592C176.447 20.3912 176.255 20.9624 176.255 21.6726V30H172.588V21.495C172.588 20.8262 172.396 20.2936 172.011 19.897C171.632 19.5005 171.132 19.3022 170.511 19.3022C170.09 19.3022 169.712 19.4087 169.374 19.6218C169.043 19.829 168.779 20.1219 168.584 20.5007C168.389 20.8736 168.291 21.3116 168.291 21.8146V30H164.509ZM193.526 30.2663C192.124 30.2663 190.916 29.9822 189.904 29.4141C188.898 28.84 188.123 28.0291 187.578 26.9815C187.034 25.928 186.762 24.6822 186.762 23.244C186.762 21.8413 187.034 20.6102 187.578 19.5508C188.123 18.4914 188.889 17.6657 189.878 17.0739C190.872 16.482 192.038 16.1861 193.376 16.1861C194.275 16.1861 195.113 16.3311 195.888 16.6211C196.669 16.9052 197.35 17.3343 197.93 17.9084C198.516 18.4825 198.972 19.2045 199.297 20.0746C199.623 20.9387 199.785 21.9508 199.785 23.1108V24.1495H188.271V21.8058H196.225C196.225 21.2612 196.107 20.7789 195.87 20.3587C195.633 19.9384 195.305 19.61 194.885 19.3732C194.47 19.1306 193.988 19.0092 193.438 19.0092C192.864 19.0092 192.355 19.1424 191.911 19.4087C191.473 19.6692 191.129 20.0213 190.881 20.4652C190.632 20.9032 190.505 21.3915 190.499 21.93V24.1584C190.499 24.8331 190.623 25.4161 190.872 25.9073C191.126 26.3986 191.485 26.7773 191.946 27.0437C192.408 27.31 192.955 27.4432 193.589 27.4432C194.009 27.4432 194.394 27.384 194.743 27.2656C195.092 27.1473 195.391 26.9697 195.639 26.733C195.888 26.4962 196.077 26.2062 196.208 25.8629L199.705 26.0938C199.528 26.9342 199.164 27.6681 198.613 28.2955C198.069 28.9169 197.365 29.4022 196.501 29.7514C195.642 30.0947 194.651 30.2663 193.526 30.2663ZM206.035 22.1165V30H202.253V16.3636H205.858V18.7695H206.018C206.319 17.9764 206.825 17.3491 207.536 16.8874C208.246 16.4199 209.107 16.1861 210.119 16.1861C211.066 16.1861 211.892 16.3932 212.596 16.8075C213.3 17.2218 213.848 17.8137 214.238 18.5831C214.629 19.3466 214.824 20.258 214.824 21.3175V30H211.042V21.9922C211.048 21.1577 210.835 20.5066 210.403 20.0391C209.971 19.5656 209.376 19.3288 208.619 19.3288C208.11 19.3288 207.66 19.4383 207.269 19.6573C206.885 19.8763 206.583 20.1959 206.364 20.6161C206.151 21.0304 206.041 21.5305 206.035 22.1165ZM225.058 16.3636V19.2045H216.846V16.3636H225.058ZM218.711 13.0966H222.493V25.8097C222.493 26.1589 222.546 26.4311 222.652 26.6264C222.759 26.8158 222.907 26.949 223.096 27.0259C223.292 27.1029 223.517 27.1413 223.771 27.1413C223.949 27.1413 224.126 27.1265 224.304 27.0969C224.481 27.0614 224.617 27.0348 224.712 27.017L225.307 29.8313C225.118 29.8905 224.851 29.9586 224.508 30.0355C224.165 30.1184 223.747 30.1687 223.256 30.1864C222.345 30.2219 221.546 30.1006 220.859 29.8224C220.178 29.5443 219.649 29.1122 219.27 28.5263C218.891 27.9403 218.705 27.2005 218.711 26.3068V13.0966ZM233.537 30.2663C232.158 30.2663 230.965 29.9734 229.959 29.3874C228.959 28.7956 228.186 27.9729 227.642 26.9194C227.097 25.86 226.825 24.6319 226.825 23.2351C226.825 21.8265 227.097 20.5954 227.642 19.5419C228.186 18.4825 228.959 17.6598 229.959 17.0739C230.965 16.482 232.158 16.1861 233.537 16.1861C234.916 16.1861 236.105 16.482 237.106 17.0739C238.112 17.6598 238.887 18.4825 239.432 19.5419C239.976 20.5954 240.248 21.8265 240.248 23.2351C240.248 24.6319 239.976 25.86 239.432 26.9194C238.887 27.9729 238.112 28.7956 237.106 29.3874C236.105 29.9734 234.916 30.2663 233.537 30.2663ZM233.554 27.3366C234.182 27.3366 234.706 27.1591 235.126 26.804C235.546 26.4429 235.863 25.9517 236.076 25.3303C236.295 24.7088 236.404 24.0015 236.404 23.2085C236.404 22.4154 236.295 21.7081 236.076 21.0866C235.863 20.4652 235.546 19.974 235.126 19.6129C234.706 19.2519 234.182 19.0714 233.554 19.0714C232.921 19.0714 232.388 19.2519 231.956 19.6129C231.53 19.974 231.208 20.4652 230.989 21.0866C230.776 21.7081 230.669 22.4154 230.669 23.2085C230.669 24.0015 230.776 24.7088 230.989 25.3303C231.208 25.9517 231.53 26.4429 231.956 26.804C232.388 27.1591 232.921 27.3366 233.554 27.3366Z" fill="#FFEACC"/>
<path d="M89.6225 48.1836H85.734C85.663 47.6805 85.518 47.2337 85.299 46.843C85.08 46.4465 84.7989 46.1091 84.4556 45.831C84.1123 45.5528 83.7158 45.3397 83.266 45.1918C82.8221 45.0438 82.3397 44.9698 81.8189 44.9698C80.8778 44.9698 80.0581 45.2036 79.3597 45.6712C78.6613 46.1328 78.1198 46.8075 77.7351 47.6953C77.3504 48.5772 77.158 49.6484 77.158 50.9091C77.158 52.2053 77.3504 53.2943 77.7351 54.1761C78.1257 55.058 78.6702 55.7238 79.3686 56.1737C80.067 56.6235 80.8749 56.8484 81.7923 56.8484C82.3072 56.8484 82.7836 56.7803 83.2216 56.6442C83.6655 56.508 84.0591 56.3098 84.4023 56.0494C84.7456 55.783 85.0297 55.4605 85.2546 55.0817C85.4854 54.7029 85.6452 54.2708 85.734 53.7855L89.6225 53.8033C89.5219 54.6378 89.2704 55.4427 88.8679 56.218C88.4714 56.9875 87.9357 57.677 87.261 58.2866C86.5922 58.8903 85.7932 59.3697 84.864 59.7248C83.9407 60.074 82.8961 60.2486 81.7301 60.2486C80.1084 60.2486 78.6584 59.8816 77.38 59.1477C76.1075 58.4138 75.1013 57.3514 74.3615 55.9606C73.6276 54.5697 73.2607 52.8859 73.2607 50.9091C73.2607 48.9264 73.6335 47.2396 74.3793 45.8487C75.125 44.4579 76.1371 43.3984 77.4155 42.6705C78.6939 41.9366 80.1321 41.5696 81.7301 41.5696C82.7836 41.5696 83.7602 41.7176 84.6598 42.0135C85.5653 42.3094 86.3673 42.7415 87.0657 43.3097C87.7641 43.8719 88.3323 44.5614 88.7702 45.3782C89.2141 46.195 89.4982 47.1301 89.6225 48.1836ZM98.4693 60.2663C97.0903 60.2663 95.8977 59.9734 94.8915 59.3874C93.8913 58.7956 93.1189 57.9729 92.5744 56.9194C92.0299 55.86 91.7576 54.6319 91.7576 53.2351C91.7576 51.8265 92.0299 50.5954 92.5744 49.5419C93.1189 48.4825 93.8913 47.6598 94.8915 47.0739C95.8977 46.482 97.0903 46.1861 98.4693 46.1861C99.8483 46.1861 101.038 46.482 102.038 47.0739C103.044 47.6598 103.82 48.4825 104.364 49.5419C104.909 50.5954 105.181 51.8265 105.181 53.2351C105.181 54.6319 104.909 55.86 104.364 56.9194C103.82 57.9729 103.044 58.7956 102.038 59.3874C101.038 59.9734 99.8483 60.2663 98.4693 60.2663ZM98.487 57.3366C99.1144 57.3366 99.6382 57.1591 100.058 56.804C100.479 56.4429 100.795 55.9517 101.008 55.3303C101.227 54.7088 101.337 54.0015 101.337 53.2085C101.337 52.4154 101.227 51.7081 101.008 51.0866C100.795 50.4652 100.479 49.974 100.058 49.6129C99.6382 49.2519 99.1144 49.0714 98.487 49.0714C97.8538 49.0714 97.3211 49.2519 96.889 49.6129C96.4629 49.974 96.1403 50.4652 95.9213 51.0866C95.7083 51.7081 95.6017 52.4154 95.6017 53.2085C95.6017 54.0015 95.7083 54.7088 95.9213 55.3303C96.1403 55.9517 96.4629 56.4429 96.889 56.804C97.3211 57.1591 97.8538 57.3366 98.487 57.3366ZM107.64 60V46.3636H111.244V48.7695H111.404C111.688 47.9705 112.162 47.3402 112.825 46.8786C113.488 46.4169 114.281 46.1861 115.204 46.1861C116.139 46.1861 116.935 46.4199 117.592 46.8874C118.249 47.3491 118.687 47.9764 118.906 48.7695H119.048C119.326 47.9883 119.829 47.3639 120.557 46.8963C121.291 46.4228 122.158 46.1861 123.159 46.1861C124.431 46.1861 125.464 46.5915 126.257 47.4023C127.056 48.2073 127.455 49.3495 127.455 50.8292V60H123.682V51.5749C123.682 50.8174 123.481 50.2492 123.079 49.8704C122.676 49.4916 122.173 49.3022 121.569 49.3022C120.883 49.3022 120.347 49.5212 119.963 49.9592C119.578 50.3912 119.385 50.9624 119.385 51.6726V60H115.719V51.495C115.719 50.8262 115.527 50.2936 115.142 49.897C114.763 49.5005 114.263 49.3022 113.642 49.3022C113.221 49.3022 112.843 49.4087 112.505 49.6218C112.174 49.829 111.91 50.1219 111.715 50.5007C111.52 50.8736 111.422 51.3116 111.422 51.8146V60H107.64ZM130.443 65.1136V46.3636H134.172V48.6541H134.34C134.506 48.2872 134.746 47.9143 135.059 47.5355C135.379 47.1508 135.793 46.8312 136.302 46.5767C136.817 46.3163 137.456 46.1861 138.22 46.1861C139.214 46.1861 140.132 46.4465 140.972 46.9673C141.812 47.4822 142.484 48.2605 142.987 49.3022C143.49 50.3379 143.742 51.6371 143.742 53.1996C143.742 54.7206 143.496 56.005 143.005 57.0526C142.52 58.0942 141.857 58.8844 141.016 59.4229C140.182 59.9556 139.247 60.2219 138.211 60.2219C137.477 60.2219 136.853 60.1006 136.338 59.858C135.829 59.6153 135.411 59.3105 135.086 58.9435C134.76 58.5707 134.512 58.1948 134.34 57.8161H134.225V65.1136H130.443ZM134.145 53.1818C134.145 53.9927 134.257 54.6999 134.482 55.3036C134.707 55.9073 135.033 56.3778 135.459 56.7152C135.885 57.0466 136.403 57.2124 137.012 57.2124C137.628 57.2124 138.149 57.0437 138.575 56.7063C139.001 56.363 139.324 55.8896 139.543 55.2859C139.768 54.6763 139.88 53.9749 139.88 53.1818C139.88 52.3946 139.77 51.7022 139.551 51.1044C139.333 50.5066 139.01 50.0391 138.584 49.7017C138.158 49.3643 137.634 49.1957 137.012 49.1957C136.397 49.1957 135.876 49.3584 135.45 49.6839C135.03 50.0095 134.707 50.4711 134.482 51.0689C134.257 51.6667 134.145 52.371 134.145 53.1818ZM155.008 54.1939V46.3636H158.79V60H155.159V57.5231H155.017C154.709 58.3221 154.197 58.9643 153.481 59.4496C152.771 59.9349 151.904 60.1776 150.88 60.1776C149.968 60.1776 149.166 59.9704 148.474 59.5561C147.781 59.1418 147.24 58.5529 146.849 57.7894C146.464 57.0259 146.269 56.1115 146.263 55.0462V46.3636H150.045V54.3714C150.051 55.1764 150.267 55.8126 150.693 56.2802C151.119 56.7478 151.69 56.9815 152.407 56.9815C152.862 56.9815 153.288 56.878 153.685 56.6708C154.082 56.4577 154.401 56.1441 154.644 55.7298C154.892 55.3155 155.014 54.8035 155.008 54.1939ZM169.068 46.3636V49.2045H160.856V46.3636H169.068ZM162.72 43.0966H166.502V55.8097C166.502 56.1589 166.556 56.4311 166.662 56.6264C166.769 56.8158 166.917 56.949 167.106 57.0259C167.301 57.1029 167.526 57.1413 167.781 57.1413C167.958 57.1413 168.136 57.1265 168.313 57.0969C168.491 57.0614 168.627 57.0348 168.722 57.017L169.317 59.8313C169.127 59.8905 168.861 59.9586 168.518 60.0355C168.174 60.1184 167.757 60.1687 167.266 60.1864C166.354 60.2219 165.555 60.1006 164.869 59.8224C164.188 59.5443 163.659 59.1122 163.28 58.5263C162.901 57.9403 162.715 57.2005 162.72 56.3068V43.0966ZM175.42 60.2575C174.55 60.2575 173.775 60.1065 173.094 59.8047C172.414 59.4969 171.875 59.0442 171.478 58.4464C171.088 57.8427 170.892 57.091 170.892 56.1914C170.892 55.4338 171.032 54.7976 171.31 54.2827C171.588 53.7678 171.967 53.3535 172.446 53.0398C172.926 52.7261 173.47 52.4893 174.08 52.3295C174.695 52.1697 175.34 52.0573 176.015 51.9922C176.808 51.9093 177.447 51.8324 177.933 51.7614C178.418 51.6844 178.77 51.572 178.989 51.424C179.208 51.276 179.318 51.0571 179.318 50.767V50.7138C179.318 50.1515 179.14 49.7165 178.785 49.4087C178.436 49.101 177.939 48.9471 177.293 48.9471C176.613 48.9471 176.071 49.098 175.669 49.3999C175.266 49.6958 175 50.0687 174.87 50.5185L171.372 50.2344C171.549 49.4058 171.899 48.6896 172.419 48.0859C172.94 47.4763 173.612 47.0088 174.435 46.6832C175.263 46.3518 176.222 46.1861 177.311 46.1861C178.069 46.1861 178.794 46.2749 179.486 46.4524C180.185 46.63 180.803 46.9052 181.342 47.2781C181.886 47.6509 182.315 48.1303 182.629 48.7163C182.943 49.2963 183.1 49.9917 183.1 50.8026V60H179.513V58.109H179.406C179.187 58.5352 178.894 58.911 178.527 59.2365C178.16 59.5561 177.72 59.8076 177.205 59.9911C176.69 60.1687 176.095 60.2575 175.42 60.2575ZM176.503 57.6474C177.06 57.6474 177.551 57.5379 177.977 57.3189C178.403 57.094 178.738 56.7921 178.98 56.4134C179.223 56.0346 179.344 55.6055 179.344 55.1261V53.679C179.226 53.7559 179.063 53.8269 178.856 53.892C178.655 53.9512 178.427 54.0075 178.172 54.0607C177.918 54.1081 177.663 54.1525 177.409 54.1939C177.154 54.2294 176.924 54.262 176.716 54.2915C176.272 54.3567 175.885 54.4602 175.553 54.6023C175.222 54.7443 174.964 54.9367 174.781 55.1793C174.598 55.4161 174.506 55.712 174.506 56.0671C174.506 56.582 174.692 56.9756 175.065 57.2479C175.444 57.5142 175.923 57.6474 176.503 57.6474ZM192.195 60.2663C190.798 60.2663 189.597 59.9704 188.59 59.3786C187.59 58.7808 186.821 57.9522 186.282 56.8928C185.75 55.8333 185.483 54.6141 185.483 53.2351C185.483 51.8383 185.753 50.6132 186.291 49.5597C186.836 48.5002 187.608 47.6746 188.608 47.0827C189.608 46.485 190.798 46.1861 192.177 46.1861C193.367 46.1861 194.408 46.4021 195.302 46.8342C196.196 47.2662 196.903 47.8729 197.424 48.6541C197.945 49.4354 198.232 50.3527 198.285 51.4062H194.716C194.616 50.7256 194.349 50.1781 193.917 49.7638C193.491 49.3436 192.932 49.1335 192.239 49.1335C191.653 49.1335 191.141 49.2933 190.703 49.6129C190.271 49.9266 189.934 50.3853 189.691 50.989C189.449 51.5927 189.327 52.3236 189.327 53.1818C189.327 54.0518 189.446 54.7917 189.682 55.4013C189.925 56.0109 190.265 56.4755 190.703 56.7951C191.141 57.1147 191.653 57.2745 192.239 57.2745C192.671 57.2745 193.059 57.1857 193.402 57.0082C193.751 56.8306 194.039 56.5732 194.263 56.2358C194.494 55.8925 194.645 55.4812 194.716 55.0018H198.285C198.226 56.0434 197.942 56.9608 197.433 57.7539C196.93 58.5411 196.234 59.1566 195.347 59.6005C194.459 60.0444 193.408 60.2663 192.195 60.2663ZM200.706 60V46.3636H204.488V60H200.706ZM202.606 44.6058C202.044 44.6058 201.562 44.4194 201.159 44.0465C200.763 43.6677 200.564 43.215 200.564 42.6882C200.564 42.1674 200.763 41.7205 201.159 41.3477C201.562 40.9689 202.044 40.7795 202.606 40.7795C203.169 40.7795 203.648 40.9689 204.045 41.3477C204.447 41.7205 204.648 42.1674 204.648 42.6882C204.648 43.215 204.447 43.6677 204.045 44.0465C203.648 44.4194 203.169 44.6058 202.606 44.6058ZM213.679 60.2663C212.3 60.2663 211.108 59.9734 210.101 59.3874C209.101 58.7956 208.329 57.9729 207.784 56.9194C207.24 55.86 206.968 54.6319 206.968 53.2351C206.968 51.8265 207.24 50.5954 207.784 49.5419C208.329 48.4825 209.101 47.6598 210.101 47.0739C211.108 46.482 212.3 46.1861 213.679 46.1861C215.058 46.1861 216.248 46.482 217.248 47.0739C218.254 47.6598 219.03 48.4825 219.574 49.5419C220.119 50.5954 220.391 51.8265 220.391 53.2351C220.391 54.6319 220.119 55.86 219.574 56.9194C219.03 57.9729 218.254 58.7956 217.248 59.3874C216.248 59.9734 215.058 60.2663 213.679 60.2663ZM213.697 57.3366C214.324 57.3366 214.848 57.1591 215.268 56.804C215.689 56.4429 216.005 55.9517 216.218 55.3303C216.437 54.7088 216.547 54.0015 216.547 53.2085C216.547 52.4154 216.437 51.7081 216.218 51.0866C216.005 50.4652 215.689 49.974 215.268 49.6129C214.848 49.2519 214.324 49.0714 213.697 49.0714C213.064 49.0714 212.531 49.2519 212.099 49.6129C211.673 49.974 211.35 50.4652 211.131 51.0866C210.918 51.7081 210.812 52.4154 210.812 53.2085C210.812 54.0015 210.918 54.7088 211.131 55.3303C211.35 55.9517 211.673 56.4429 212.099 56.804C212.531 57.1591 213.064 57.3366 213.697 57.3366ZM226.632 52.1165V60H222.85V46.3636H226.454V48.7695H226.614C226.916 47.9764 227.422 47.3491 228.132 46.8874C228.843 46.4199 229.704 46.1861 230.716 46.1861C231.663 46.1861 232.488 46.3932 233.193 46.8075C233.897 47.2218 234.445 47.8137 234.835 48.5831C235.226 49.3466 235.421 50.258 235.421 51.3175V60H231.639V51.9922C231.645 51.1577 231.432 50.5066 231 50.0391C230.568 49.5656 229.973 49.3288 229.215 49.3288C228.706 49.3288 228.257 49.4383 227.866 49.6573C227.481 49.8763 227.179 50.1959 226.96 50.6161C226.747 51.0304 226.638 51.5305 226.632 52.1165ZM242.29 60.2575C241.42 60.2575 240.645 60.1065 239.964 59.8047C239.284 59.4969 238.745 59.0442 238.349 58.4464C237.958 57.8427 237.763 57.091 237.763 56.1914C237.763 55.4338 237.902 54.7976 238.18 54.2827C238.458 53.7678 238.837 53.3535 239.316 53.0398C239.796 52.7261 240.34 52.4893 240.95 52.3295C241.565 52.1697 242.21 52.0573 242.885 51.9922C243.678 51.9093 244.317 51.8324 244.803 51.7614C245.288 51.6844 245.64 51.572 245.859 51.424C246.078 51.276 246.188 51.0571 246.188 50.767V50.7138C246.188 50.1515 246.01 49.7165 245.655 49.4087C245.306 49.101 244.809 48.9471 244.164 48.9471C243.483 48.9471 242.941 49.098 242.539 49.3999C242.136 49.6958 241.87 50.0687 241.74 50.5185L238.242 50.2344C238.42 49.4058 238.769 48.6896 239.29 48.0859C239.81 47.4763 240.482 47.0088 241.305 46.6832C242.133 46.3518 243.092 46.1861 244.181 46.1861C244.939 46.1861 245.664 46.2749 246.356 46.4524C247.055 46.63 247.673 46.9052 248.212 47.2781C248.756 47.6509 249.185 48.1303 249.499 48.7163C249.813 49.2963 249.97 49.9917 249.97 50.8026V60H246.383V58.109H246.276C246.057 58.5352 245.765 58.911 245.398 59.2365C245.031 59.5561 244.59 59.8076 244.075 59.9911C243.56 60.1687 242.965 60.2575 242.29 60.2575ZM243.373 57.6474C243.93 57.6474 244.421 57.5379 244.847 57.3189C245.273 57.094 245.608 56.7921 245.85 56.4134C246.093 56.0346 246.214 55.6055 246.214 55.1261V53.679C246.096 53.7559 245.933 53.8269 245.726 53.892C245.525 53.9512 245.297 54.0075 245.042 54.0607C244.788 54.1081 244.533 54.1525 244.279 54.1939C244.024 54.2294 243.794 54.262 243.586 54.2915C243.143 54.3567 242.755 54.4602 242.423 54.6023C242.092 54.7443 241.835 54.9367 241.651 55.1793C241.468 55.4161 241.376 55.712 241.376 56.0671C241.376 56.582 241.562 56.9756 241.935 57.2479C242.314 57.5142 242.793 57.6474 243.373 57.6474ZM256.686 41.8182V60H252.904V41.8182H256.686Z" fill="#FFEACC"/>
<ellipse cx="51" cy="36.5" rx="7" ry="10.5" fill="#D9D9D9"/>
<ellipse cx="280" cy="36.5" rx="7" ry="10.5" fill="#D9D9D9"/>
</svg>